<?xml version="1.0" encoding="utf-8"?>
<!-- Generator: Adobe Illustrator 18.0.0, SVG Export Plug-In . SVG Version: 6.00 Build 0)  -->
<!DOCTYPE svg PUBLIC "-//W3C//DTD SVG 1.1//EN" "http://www.w3.org/Graphics/SVG/1.1/DTD/svg11.dtd">
<svg version="1.1" id="Capa_1" xmlns="http://www.w3.org/2000/svg" xmlns:xlink="http://www.w3.org/1999/xlink" x="0px" y="0px"
	 viewBox="0 0 69.6 69.6" enable-background="new 0 0 69.6 69.6" xml:space="preserve">
<g>
	<path fill="#FFFFFF" d="M64.3,69.6c-1.4,0-2.8-0.6-3.8-1.6L46.2,53.7c-4.9,3.4-10.8,5.2-16.7,5.2C13.2,58.9,0,45.7,0,29.5
		S13.2,0,29.5,0s29.5,13.2,29.5,29.5c0,5.9-1.8,11.8-5.2,16.7l14.4,14.4c1,1,1.5,2.3,1.5,3.8C69.6,67.2,67.2,69.6,64.3,69.6z
		 M29.5,10.7c-10.3,0-18.8,8.4-18.8,18.8s8.4,18.8,18.8,18.8s18.8-8.4,18.8-18.8S39.8,10.7,29.5,10.7z"/>
</g>
</svg>
